<?xml version="1.0"?> <svg xmlns="http://www.w3.org/2000/svg" width="311" height="98" viewBox="0 0 311 98" fill="none"> <g> <path d="M108.637 45.9663L101.438 30.5736H94.577L105.173 53.1805L97.4404 68.389H104.354L123.264 30.5736H116.292L108.637 45.9663Z" fill="#3A3F58"></path> <path d="M162.693 15.9853H156.806V57.5846H162.693V15.9853Z" fill="#3A3F58"></path> <path d="M137.548 35.6513C139.137 35.6659 140.687 36.1261 142.029 36.974C143.371 37.8219 144.452 39.0283 145.145 40.4576H151.244C150.363 37.163 148.313 34.2995 145.479 32.4003C142.644 30.501 139.214 29.7016 135.832 30.1425C132.451 30.5834 129.34 32.2404 127.092 34.8083C124.839 37.3713 123.594 40.6659 123.594 44.0768C123.574 45.9179 123.923 47.7493 124.621 49.4548C125.314 51.1602 126.341 52.7155 127.639 54.0236C128.938 55.3318 130.483 56.3686 132.184 57.076C133.885 57.7834 135.711 58.1419 137.552 58.1419C140.706 58.1371 143.769 57.076 146.254 55.1332C148.74 53.1903 150.503 50.4722 151.273 47.4102H145.169C144.558 48.7813 143.589 49.9587 142.363 50.8211C141.138 51.6835 139.704 52.2019 138.206 52.3182C136.714 52.4345 135.212 52.1438 133.87 51.48C132.528 50.8162 131.385 49.8036 130.571 48.5439C129.757 47.2842 129.292 45.8307 129.238 44.3336C129.18 42.8365 129.529 41.3491 130.246 40.0312C130.963 38.7134 132.019 37.6136 133.308 36.848C134.597 36.0825 136.07 35.6804 137.567 35.6804L137.548 35.6513Z" fill="#3A3F58"></path> <path d="M175.242 30.5736H169.302V57.5846H175.242V30.5736Z" fill="#3A3F58"></path> <path d="M172.277 19.8226C171.787 19.8081 171.303 19.8953 170.847 20.0746C170.392 20.2538 169.98 20.5203 169.631 20.8643C169.282 21.2083 169.006 21.6202 168.822 22.0707C168.638 22.5213 168.546 23.0058 168.551 23.4952C168.531 23.9942 168.619 24.4933 168.798 24.9632C168.977 25.4283 169.248 25.8547 169.597 26.2181C169.946 26.5766 170.363 26.8625 170.823 27.0611C171.283 27.2549 171.778 27.3567 172.281 27.3567C172.78 27.3567 173.28 27.2549 173.74 27.0611C174.2 26.8673 174.617 26.5815 174.966 26.2181C175.314 25.8596 175.586 25.4332 175.765 24.9632C175.944 24.4981 176.027 23.999 176.012 23.4952C176.017 23.0058 175.92 22.5213 175.731 22.0756C175.542 21.625 175.266 21.218 174.922 20.874C174.573 20.53 174.161 20.2635 173.711 20.0794C173.25 19.9002 172.766 19.813 172.277 19.8226Z" fill="#3A3F58"></path> <path d="M250.015 21.9254H244.182V51.6932C244.182 55.2688 246.934 57.5799 250.228 57.5799H258.722V51.7465H251.614C251.406 51.7465 251.197 51.7029 250.999 51.6254C250.805 51.543 250.626 51.4267 250.48 51.2766C250.33 51.1264 250.214 50.9519 250.131 50.7533C250.049 50.5595 250.01 50.3512 250.01 50.138V36.4023H258.707V30.5931H250.01V21.9254H250.015Z" fill="#3A3F58"></path> <path d="M194.874 30.0311C190.877 30.0311 187.417 31.3296 184.66 34.0816C182.243 36.7851 180.91 40.288 180.93 43.917C180.93 47.8124 182.335 51.48 184.82 54.0188C187.519 56.6254 191.119 58.0983 194.869 58.1371C198.687 58.1032 202.335 56.5722 205.024 53.8686C206.158 52.7155 207.069 51.3589 207.708 49.8715L200.794 50.0314C200.024 50.8211 199.099 51.4364 198.076 51.8483C197.054 52.2601 195.954 52.449 194.854 52.4103C192.476 52.4103 190.421 51.6545 188.968 50.0847C187.945 49.0866 187.194 47.8366 186.797 46.4654H208.701L208.726 46.0197C208.779 45.4286 208.871 44.6243 208.871 43.946C208.866 35.9178 202.815 30.0311 194.874 30.0311ZM186.933 41.0002C188.086 37.8171 191.114 35.6368 194.859 35.6368C196.565 35.6029 198.236 36.1019 199.646 37.0612C201.056 38.0206 202.127 39.4014 202.713 41.0002H186.933Z" fill="#3A3F58"></path> <path d="M226.928 30.0311C224.428 30.0311 222.069 30.7385 220.281 32.4342V30.5689H214.448V57.5799H220.281V42.0419C220.281 38.5826 222.873 35.5544 226.279 35.5544C229.855 35.5544 232.437 38.5293 232.437 42.0419V57.5993H238.246V41.5962C238.266 34.8907 233.624 30.0311 226.928 30.0311Z" fill="#3A3F58"></path> <path d="M279.996 41.1165H271.566C270.946 41.1165 270.35 40.8694 269.914 40.4334C269.473 39.9973 269.23 39.4014 269.23 38.7812C269.23 38.1611 269.477 37.5651 269.914 37.1291C270.35 36.693 270.946 36.4459 271.566 36.4459H286.682V30.5689H271.566C269.41 30.6174 267.365 31.5088 265.858 33.0496C264.351 34.5903 263.508 36.6591 263.508 38.8152C263.508 40.9712 264.351 43.04 265.858 44.5807C267.365 46.1214 269.414 47.0129 271.566 47.0614H279.996C280.301 47.0517 280.607 47.1098 280.888 47.2213C281.173 47.3327 281.43 47.5023 281.643 47.7203C281.861 47.9383 282.031 48.1951 282.142 48.4761C282.254 48.762 282.312 49.0624 282.302 49.3676C282.302 49.9829 282.06 50.5789 281.629 51.0198C281.198 51.4607 280.611 51.7175 279.991 51.732H264.385V57.609H279.991C281.091 57.6332 282.181 57.4394 283.208 57.0373C284.231 56.6351 285.161 56.0295 285.951 55.264C286.735 54.4936 287.36 53.5779 287.787 52.5653C288.213 51.5527 288.431 50.4626 288.431 49.3628C288.431 48.2629 288.213 47.1728 287.787 46.1602C287.36 45.1476 286.735 44.227 285.951 43.4615C285.166 42.696 284.231 42.0904 283.208 41.6882C282.186 41.2813 281.096 41.0875 279.996 41.1165Z" fill="#3A3F58"></path> <path d="M71.6309 15.2199H34.0771C32.6624 15.2199 31.2622 15.496 29.954 16.0387C28.6458 16.5813 27.4588 17.3711 26.4607 18.374C25.4627 19.3721 24.6681 20.5591 24.1254 21.8673C23.5828 23.1754 23.3066 24.5756 23.3066 25.9904V63.5441C23.3066 64.9589 23.5828 66.3591 24.1254 67.6624C24.6681 68.9706 25.4578 70.1528 26.4607 71.1557C27.4588 72.1538 28.6458 72.9483 29.954 73.4861C31.2622 74.0288 32.6575 74.305 34.0723 74.305H71.6261C73.0408 74.305 74.441 74.0288 75.7443 73.4861C77.0525 72.9435 78.2347 72.1538 79.2376 71.1557C80.2357 70.1576 81.0303 68.9706 81.5729 67.6624C82.1155 66.3543 82.3917 64.9589 82.3917 63.5441V25.9904C82.3917 24.5756 82.1155 23.1754 81.5729 21.8721C81.0351 20.5639 80.2405 19.3817 79.2424 18.3788C78.2444 17.3808 77.0573 16.5862 75.754 16.0435C74.441 15.5009 73.0408 15.2199 71.6309 15.2199ZM80.4149 63.5441C80.4101 65.8746 79.4847 68.1033 77.8374 69.7506C76.1901 71.3979 73.9565 72.3233 71.6309 72.3282H34.0771C31.7467 72.3282 29.5131 71.4028 27.8658 69.7555C26.2185 68.1082 25.2883 65.8746 25.2883 63.5441V25.9904C25.2883 23.6599 26.2137 21.4264 27.861 19.779C29.5083 18.1317 31.7418 17.2063 34.0723 17.2015H71.6261C73.9565 17.2063 76.1901 18.1317 77.8374 19.779C79.4847 21.4264 80.4101 23.6599 80.4149 25.9904V63.5441Z" fill="#3A3F58"></path> <path d="M70.4923 30.6174H57.7887C57.4883 30.6367 57.1976 30.7191 56.9311 30.8645C56.6646 31.0098 56.4369 31.2085 56.2576 31.4507L42.0811 53.4277C41.9358 53.6797 41.8631 53.9704 41.8631 54.2611C41.8631 54.5518 41.9406 54.8425 42.0811 55.0944L48.2973 64.9298C48.3457 65.0316 48.4184 65.1188 48.5153 65.1769C48.6074 65.2399 48.7188 65.269 48.8302 65.269C48.9417 65.269 49.0531 65.2351 49.1452 65.1769C49.2421 65.1188 49.3147 65.0316 49.3632 64.9298L70.9429 31.4507C71.2433 30.9953 71.035 30.6174 70.4923 30.6174Z" fill="#3A3F58"></path> <path d="M44.0337 43.3113L51.6791 31.4507C51.9746 31.005 51.7711 30.6174 51.2334 30.6174H35.957C35.4143 30.6174 35.206 30.9953 35.5112 31.4556L42.9774 43.3065C43.0259 43.4034 43.0986 43.4906 43.1906 43.5487C43.2827 43.6069 43.3941 43.6408 43.5007 43.6408C43.6121 43.6408 43.7187 43.6117 43.8108 43.5536C43.9125 43.4906 43.9852 43.4082 44.0337 43.3113Z" fill="#3A3F58"></path> </g> <defs> <filter id="filter0_d" x="0.837649" y="0" width="310.063" height="97.0145" filterUnits="userSpaceOnUse" color-interpolation-filters="sRGB"> <feFlood flood-opacity="0" result="BackgroundImageFix"></feFlood> <feColorMatrix in="SourceAlpha" type="matrix" values="0 0 0 0 0 0 0 0 0 0 0 0 0 0 0 0 0 0 127 0"></feColorMatrix> <feOffset dy="3.74487"></feOffset> <feGaussianBlur stdDeviation="1.87244"></feGaussianBlur> <feColorMatrix type="matrix" values="0 0 0 0 0 0 0 0 0 0 0 0 0 0 0 0 0 0 0.05 0"></feColorMatrix> <feBlend mode="normal" in2="BackgroundImageFix" result="effect1_dropShadow"></feBlend> <feBlend mode="normal" in="SourceGraphic" in2="effect1_dropShadow" result="shape"></feBlend> </filter> </defs> </svg>