<svg width="91" height="91" viewBox="0 0 91 91" fill="none" xmlns="http://www.w3.org/2000/svg">
<path d="M45.5 0C36.501 0 27.704 2.66853 20.2216 7.66813C12.7391 12.6677 6.90729 19.7739 3.4635 28.0879C0.0197144 36.4019 -0.881337 45.5505 0.87429 54.3766C2.62992 63.2027 6.96337 71.3101 13.3267 77.6733C19.6899 84.0366 27.7973 88.3701 36.6234 90.1257C45.4495 91.8813 54.5981 90.9803 62.9121 87.5365C71.2261 84.0927 78.3323 78.2609 83.3319 70.7784C88.3315 63.296 91 54.499 91 45.5C91 33.4326 86.2063 21.8595 77.6734 13.3266C69.1405 4.79374 57.5674 0 45.5 0ZM45.5 66.1267C41.4204 66.1267 37.4325 64.9169 34.0405 62.6504C30.6484 60.3839 28.0046 57.1625 26.4435 53.3935C24.8823 49.6244 24.4738 45.4771 25.2697 41.4759C26.0656 37.4747 28.0301 33.7994 30.9148 30.9147C33.7994 28.03 37.4748 26.0655 41.4759 25.2697C45.4771 24.4738 49.6245 24.8823 53.3935 26.4434C57.1625 28.0046 60.384 30.6484 62.6505 34.0404C64.9169 37.4325 66.1267 41.4204 66.1267 45.5C66.1267 50.9705 63.9535 56.217 60.0853 60.0852C56.217 63.9535 50.9705 66.1267 45.5 66.1267Z" fill="#29B981"></path>
</svg>