<svg width="493" height="161" viewBox="0 0 493 161" fill="none" xmlns="http://www.w3.org/2000/svg">
<mask id="mask0_2308_250" style="mask-type:alpha" maskUnits="userSpaceOnUse" x="0" y="14" width="145" height="147">
<path d="M72.0393 160.686C111.825 160.686 144.079 128.046 144.079 87.7822C144.079 47.5185 111.825 14.8784 72.0393 14.8784C32.2531 14.8784 0 47.5185 0 87.7822C0 128.046 32.2531 160.686 72.0393 160.686Z" fill="white"></path>
</mask>
<g mask="url(#mask0_2308_250)">
<path fill-rule="evenodd" clip-rule="evenodd" d="M110.377 149.516C99.2745 156.592 86.1293 160.686 72.0393 160.686C57.9588 160.686 44.8219 156.598 33.7241 149.53L44.2026 124.433C44.4801 123.768 45.1298 123.336 45.8501 123.336H98.257C98.9773 123.336 99.627 123.768 99.9046 124.433L110.377 149.516ZM130.798 129.97L138.952 149.647C139.439 150.823 138.575 152.116 137.303 152.116H112.652C111.932 152.116 111.282 151.683 111.004 151.018L110.377 149.516C118.384 144.413 125.328 137.759 130.798 129.97ZM130.798 129.97L83.6099 16.0994C83.5639 15.9884 83.5075 15.8838 83.4421 15.7866C117.81 21.3176 144.079 51.4454 144.079 87.7822C144.079 103.504 139.161 118.063 130.798 129.97ZM76.1913 14.9975H81.9605C82.5623 14.9975 83.1148 15.2997 83.4421 15.7866C81.062 15.4036 78.6431 15.1385 76.1913 14.9975ZM67.8872 14.9975C69.2613 14.9185 70.6457 14.8784 72.0393 14.8784C73.4329 14.8784 74.8172 14.9185 76.1913 14.9975H67.8872ZM62.2752 15.5424C62.6055 15.2005 63.066 14.9975 63.5593 14.9975H67.8872C65.9961 15.1062 64.1245 15.2888 62.2752 15.5424ZM62.2752 15.5424C62.1264 15.6963 62.004 15.8784 61.9169 16.0828L13.3352 130.048C4.93882 118.126 0 103.538 0 87.7822C0 50.8699 27.1073 20.3649 62.2752 15.5424ZM13.3352 130.048C18.8021 137.811 25.7346 144.443 33.7241 149.53L33.1029 151.018C32.8254 151.683 32.1756 152.116 31.4553 152.116H6.63003C5.34975 152.116 4.48558 150.808 4.98763 149.63L13.3352 130.048ZM55.6289 101.545C54.371 101.545 53.5075 100.278 53.9668 99.1073L70.6969 56.4451C71.2896 54.9337 73.4285 54.9337 74.0212 56.4451L90.7513 99.1073C91.2106 100.278 90.3471 101.545 89.0892 101.545H55.6289Z" fill="#29B981"></path>
</g>
<path d="M436.501 145.81V60.7455H456.303V68.4236C458.525 65.7969 461.758 62.9681 464.587 61.3517C468.426 59.1291 472.265 58.5229 476.71 58.5229C481.56 58.5229 486.813 59.3312 492.268 62.564L484.186 80.5469C479.741 77.7181 476.104 77.516 474.084 77.516C469.84 77.516 465.597 78.1222 461.758 82.1633C456.303 88.0229 456.303 96.105 456.303 101.763V145.81H436.501Z" fill="#29B981"></path>
<path d="M405.774 117.119L422.342 126.413C418.705 132.879 413.452 138.536 407.996 141.971C401.127 146.417 392.034 148.437 382.942 148.437C371.627 148.437 362.332 145.608 354.25 137.526C346.168 129.444 341.723 117.725 341.723 104.995C341.723 91.8619 346.37 79.1325 355.26 70.04C362.332 62.9681 371.627 58.5229 383.75 58.5229C397.288 58.5229 405.976 64.3825 411.027 69.6359C421.938 80.951 422.948 96.7112 422.948 105.602V108.026H361.928C362.332 114.088 364.959 120.958 369.202 125.201C373.849 129.848 379.507 130.656 384.356 130.656C389.812 130.656 393.853 129.444 397.894 126.413C401.329 123.786 403.955 120.352 405.774 117.119ZM363.342 91.8619H402.743C401.935 87.2146 399.712 83.1736 396.681 80.3448C394.055 77.9201 389.812 75.4955 383.346 75.4955C376.476 75.4955 372.031 78.3243 369.404 80.951C366.575 83.5777 364.353 87.6187 363.342 91.8619Z" fill="#29B981"></path>
<path d="M339.738 78.9294H324.584V145.809H304.782V78.9294H296.498V60.7445H304.782V29.6282H324.584V60.7445H339.738V78.9294Z" fill="#29B981"></path>
<path d="M267.598 0H287.399V145.807H267.598V0Z" fill="#29B981"></path>
<path d="M233.935 70.6462V60.7455H253.736V145.81H233.935V136.92C225.246 147.023 214.538 148.437 208.476 148.437C182.209 148.437 167.257 126.615 167.257 103.177C167.257 75.4955 186.25 58.5229 208.678 58.5229C214.942 58.5229 225.853 60.1394 233.935 70.6462ZM211.103 76.3037C196.757 76.3037 187.462 88.427 187.462 103.581C187.462 118.331 196.757 130.656 211.103 130.656C223.63 130.656 235.147 121.564 235.147 103.783C235.147 85.1941 223.63 76.3037 211.103 76.3037Z" fill="#29B981"></path>
</svg>